<!--
  Copyright 2023 Hancom Inc. All rights reserved.
  https://www.hancom.com/
-->
<svg width="24" height="24" viewBox="0 0 24 24" fill="none" xmlns="http://www.w3.org/2000/svg">
<circle cx="12" cy="12" r="12" fill="#6646CC"/>
<path d="M11.5652 5.42079C11.5156 5.00699 11.1645 4.69556 10.7478 4.69556V4.69556C10.331 4.69556 9.97997 5.00699 9.93031 5.42079L9.82131 6.32915C9.61483 8.04978 8.25852 9.40609 6.53789 9.61257L5.62953 9.72157C5.21573 9.77123 4.9043 10.1223 4.9043 10.539V10.539C4.9043 10.9558 5.21573 11.3068 5.62953 11.3565L6.53789 11.4655C8.25852 11.672 9.61483 13.0283 9.82131 14.7489L9.93031 15.6573C9.97997 16.0711 10.331 16.3825 10.7478 16.3825V16.3825C11.1645 16.3825 11.5156 16.0711 11.5652 15.6573L11.6742 14.7489C11.8807 13.0283 13.237 11.672 14.9577 11.4655L15.866 11.3565C16.2798 11.3068 16.5913 10.9558 16.5913 10.539V10.539C16.5913 10.1223 16.2798 9.77123 15.866 9.72157L14.9577 9.61257C13.237 9.40609 11.8807 8.04978 11.6742 6.32915L11.5652 5.42079Z" fill="white"/>
<path d="M17 13.8236C16.9752 13.6167 16.7997 13.4609 16.5913 13.4609V13.4609C16.3829 13.4609 16.2074 13.6167 16.1826 13.8236L16.1281 14.2777C16.0248 15.138 15.3467 15.8162 14.4864 15.9194L14.0322 15.9739C13.8253 15.9988 13.6696 16.1743 13.6696 16.3827V16.3827C13.6696 16.5911 13.8253 16.7666 14.0322 16.7914L14.4864 16.8459C15.3467 16.9491 16.0248 17.6273 16.1281 18.4876L16.1826 18.9418C16.2074 19.1487 16.3829 19.3044 16.5913 19.3044V19.3044C16.7997 19.3044 16.9752 19.1487 17 18.9418L17.0545 18.4876C17.1578 17.6273 17.8359 16.9491 18.6962 16.8459L19.1504 16.7914C19.3573 16.7666 19.513 16.5911 19.513 16.3827V16.3827C19.513 16.1743 19.3573 15.9988 19.1504 15.9739L18.6962 15.9194C17.8359 15.8162 17.1578 15.138 17.0545 14.2777L17 13.8236Z" fill="white"/>
</svg>
